<svg width="747" height="747" viewBox="0 0 747 747" xmlns="http://www.w3.org/2000/svg">
<path d="M373.346 435.608C365.101 435.608 357.2 432.374 351.351 426.493L289.127 364.27C276.96 352.103 276.96 332.441 289.127 320.28C301.294 308.113 320.955 308.113 333.116 320.28L370.762 357.926L473.491 229.529C484.257 216.149 503.824 213.941 517.236 224.675C530.648 235.41 532.824 254.978 522.09 268.389L397.648 423.949C392.111 430.855 383.929 435.053 375.06 435.553L373.346 435.615L373.346 435.608ZM653.346 622.275C636.143 622.275 622.236 608.368 622.236 591.165V93.4454C622.236 76.2734 608.236 62.2734 591.034 62.2734H93.3536C76.1816 62.2734 62.2443 48.336 62.2443 31.164C62.2443 13.992 76.1816 0.0546875 93.3536 0.0546875H591.034C642.555 0.0546875 684.46 41.9614 684.46 93.4507V591.171C684.46 608.373 670.554 622.28 653.351 622.28L653.346 622.275ZM622.236 746.717C562.627 746.717 260.316 692.676 214.743 684.431C164.686 682.811 124.456 641.592 124.456 591.16V155.6C124.456 138.428 138.394 124.491 155.566 124.491C172.738 124.491 186.675 138.428 186.675 155.6V591.16C186.675 608.176 200.394 622.024 217.352 622.269H218.16C235.144 622.051 248.9 608.176 248.9 591.16C248.9 573.957 262.837 560.051 280.009 560.051H715.569C732.772 560.051 746.678 573.957 746.678 591.16V623.296C746.678 694.823 694.318 746.712 622.236 746.712L622.236 746.717ZM299.49 636.244C415.474 656.437 585.116 684.499 622.236 684.499C668.19 684.499 684.46 651.52 684.46 623.301V622.275H305.807C304.062 627.129 301.979 631.796 299.489 636.245L299.49 636.244ZM155.57 186.724H31.1269C13.9549 186.724 0.0175781 172.787 0.0175781 155.615V93.3907C0.0175781 41.932 41.8922 0.0573542 93.3509 0.0573542C144.81 0.0573542 186.684 41.932 186.684 93.3907V155.615C186.684 172.787 172.747 186.724 155.575 186.724H155.57ZM62.2362 124.5H124.46V93.3907C124.46 76.2507 110.491 62.2814 93.3509 62.2814C76.2109 62.2814 62.2416 76.2507 62.2416 93.3907V124.5H62.2362Z"/>
</svg>
