<svg width="561" height="747" viewBox="0 0 561 747" xmlns="http://www.w3.org/2000/svg">
<path fill-rule="evenodd" clip-rule="evenodd" d="M0.349609 248.929C0.349609 163.027 69.9939 93.3789 155.9 93.3789H187.009C204.191 93.3789 218.119 107.308 218.119 124.49C218.119 141.672 204.191 155.6 187.009 155.6H155.9C104.359 155.6 62.5709 197.39 62.5709 248.929C62.5709 300.47 104.361 342.258 155.9 342.258H404.788C490.694 342.258 560.339 411.906 560.339 497.808C560.339 583.386 491.221 652.826 405.771 653.355C405.442 653.366 405.112 653.371 404.78 653.371H373.671C356.489 653.371 342.561 639.442 342.561 622.26C342.561 605.078 356.489 591.15 373.671 591.15H403.898C404.194 591.141 404.491 591.137 404.788 591.137C456.327 591.137 498.117 549.349 498.117 497.808C498.117 446.269 456.329 404.479 404.788 404.479H155.9C69.9981 404.479 0.349609 334.835 0.349609 248.929Z"/>
<path d="M218.118 622.275C218.118 639.457 204.191 653.384 187.009 653.384C169.826 653.384 155.899 639.457 155.899 622.275C155.899 605.092 169.826 591.16 187.009 591.16C204.191 591.16 218.118 605.092 218.118 622.275Z"/>
<path fill-rule="evenodd" clip-rule="evenodd" d="M146.781 506.932C158.931 519.082 158.931 538.78 146.781 550.93L75.4476 622.263L146.781 693.596C158.931 705.746 158.931 725.444 146.781 737.594C134.632 749.743 114.933 749.743 102.784 737.594L9.45195 644.262C-2.69752 632.112 -2.69752 612.414 9.45195 600.264L102.784 506.932C114.933 494.783 134.632 494.783 146.781 506.932Z"/>
<path d="M311.451 622.275C311.451 639.457 297.524 653.384 280.342 653.384C263.159 653.384 249.232 639.457 249.232 622.275C249.232 605.092 263.159 591.16 280.342 591.16C297.524 591.16 311.451 605.092 311.451 622.275Z"/>
<path d="M404.784 124.492C404.784 141.675 390.857 155.607 373.675 155.607C356.492 155.607 342.565 141.675 342.565 124.492C342.565 107.309 356.492 93.3828 373.675 93.3828C390.857 93.3828 404.784 107.309 404.784 124.492Z"/>
<path d="M311.451 124.492C311.451 141.675 297.524 155.607 280.342 155.607C263.159 155.607 249.232 141.675 249.232 124.492C249.232 107.309 263.159 93.3828 280.342 93.3828C297.524 93.3828 311.451 107.309 311.451 124.492Z"/>
<path fill-rule="evenodd" clip-rule="evenodd" d="M413.894 9.15898C426.044 -2.99049 445.742 -2.99049 457.891 9.15898L551.223 102.491C563.373 114.64 563.373 134.339 551.223 146.488L457.891 239.82C445.742 251.97 426.044 251.97 413.894 239.82C401.745 227.671 401.745 207.972 413.894 195.823L485.228 124.49L413.894 53.1561C401.745 41.0066 401.745 21.3085 413.894 9.15898Z"/>
</svg>
