<svg width="21" height="20" viewBox="0 0 21 20" xmlns="http://www.w3.org/2000/svg">
<path d="M10.3994 20C4.88513 20 0.399414 15.5143 0.399414 10C0.399414 4.48571 4.88513 0 10.3994 0C15.9137 0 20.3994 4.48571 20.3994 10C20.3994 15.5143 15.9137 20 10.3994 20ZM10.3994 1.66679C5.80441 1.66679 2.0662 5.405 2.0662 10C2.0662 14.595 5.80441 18.3332 10.3994 18.3332C14.9944 18.3332 18.7326 14.595 18.7326 10C18.7326 5.405 14.9944 1.66679 10.3994 1.66679ZM9.56613 14.1668C9.34612 14.1668 9.13366 14.0801 8.97699 13.9226L5.6437 10.5894C5.31781 10.2635 5.31781 9.73682 5.6437 9.41107C5.96959 9.08518 6.49624 9.08518 6.82199 9.41107L9.47613 12.0652L13.8993 6.167C14.1752 5.80036 14.6976 5.72447 15.0652 6.00029C15.4335 6.2761 15.5086 6.79858 15.2319 7.167L10.2319 13.8338C10.087 14.0272 9.86531 14.148 9.62438 14.1646L9.56613 14.1668Z" />
</svg>
