<svg width="20" height="20" viewBox="0 0 20 20" xmlns="http://www.w3.org/2000/svg">
<path d="M13.3325 12.5C13.2075 12.5 13.08 12.4717 12.9608 12.4125L9.62754 10.7458C9.34503 10.6042 9.16675 10.3159 9.16675 9.99999V4.16678C9.16675 3.70681 9.54007 3.33349 10 3.33349C10.46 3.33349 10.8333 3.70681 10.8333 4.16678V9.48499L13.7058 10.9217C14.1175 11.1274 14.2841 11.6283 14.0783 12.04C13.9325 12.3317 13.6383 12.4999 13.3325 12.4999L13.3325 12.5ZM10 20C4.48571 20 0 15.5143 0 10C0 4.48571 4.48571 0 10 0C15.5143 0 20 4.48571 20 10C20 15.5143 15.5143 20 10 20ZM10 1.66679C5.405 1.66679 1.66679 5.405 1.66679 10C1.66679 14.595 5.405 18.3332 10 18.3332C14.595 18.3332 18.3332 14.595 18.3332 10C18.3332 5.405 14.595 1.66679 10 1.66679Z" />
</svg>
