<svg width="913" height="602" viewBox="0 0 913 602" xmlns="http://www.w3.org/2000/svg">
<path d="M395.504 555.528H556.907C591.065 555.528 618.855 527.736 618.855 493.58V347.227C618.855 303.687 654.301 268.33 697.739 268.33H851.058C885.21 268.33 913 240.538 913 206.382V35.9477C913 1.7917 885.21 -26 851.058 -26H658.518C624.361 -26 596.571 1.7917 596.571 35.9477V182.384C596.571 225.919 561.125 261.28 517.687 261.28H364.363C330.205 261.28 302.415 289.067 302.415 323.223V469.576C302.415 513.111 266.969 548.468 223.531 548.468H61.9473C27.7899 548.468 0 576.26 0 610.431V780.686C0 814.842 27.7899 842.633 61.9473 842.633H223.433C266.969 842.633 302.317 878.078 302.317 921.53V1067.88C302.317 1102.04 330.107 1129.83 364.265 1129.83H517.579C561.114 1129.83 596.463 1165.28 596.463 1208.73V1349.05C596.463 1383.21 624.248 1411 658.405 1411H850.955C885.112 1411 912.902 1383.21 912.902 1349.05V1178.78C912.902 1144.62 885.112 1116.83 850.955 1116.83H697.667C654.131 1116.83 618.782 1081.39 618.782 1037.94V897.609C618.782 863.453 590.998 835.661 556.84 835.661H395.463C351.927 835.661 316.578 800.217 316.578 756.769V634.337C316.578 590.802 352.025 555.44 395.463 555.44L395.504 555.528Z"/>
</svg>
