<svg width="747" height="747" viewBox="0 0 747 747" xmlns="http://www.w3.org/2000/svg">
<path d="M684.584 746.711H435.45C401.226 746.711 373.352 718.836 373.352 684.612V311.066C373.352 276.811 401.226 248.935 435.45 248.935H684.584C718.808 248.935 746.682 276.81 746.682 311.066V684.612C746.682 718.836 718.808 746.711 684.584 746.711ZM435.53 311.151L435.562 684.604L684.575 684.479L684.45 311.053L435.53 311.151ZM435.437 280.042L435.405 311.151H435.437V280.042ZM124.45 497.815H62.1326C27.878 497.815 0.00195312 469.94 0.00195312 435.716V62.1697C0.00195312 27.9151 27.8766 0.0390625 62.1326 0.0390625H311.186C345.473 0.0390625 373.347 27.9137 373.347 62.2004C373.347 79.3724 359.41 93.3097 342.238 93.3097C325.066 93.3097 311.129 79.3724 311.129 62.2004L62.1419 62.2629L62.2357 435.716L124.46 435.591C141.632 435.591 155.569 449.498 155.569 466.701C155.569 483.903 141.662 497.81 124.46 497.81L124.45 497.815ZM311.117 622.263H248.799C214.545 622.263 186.669 594.388 186.669 560.164V186.618C186.669 152.363 214.543 124.487 248.799 124.487H497.693C532.073 124.487 560.01 152.424 560.01 186.774C560.01 203.946 546.103 217.883 528.901 217.883C511.698 217.883 497.791 203.946 497.791 186.774L248.805 186.711L248.898 560.165L311.122 560.04C328.294 560.04 342.232 573.946 342.232 591.149C342.232 608.352 328.325 622.258 311.122 622.258L311.117 622.263Z"/>
</svg>
