<svg width="748" height="747" viewBox="0 0 748 747" xmlns="http://www.w3.org/2000/svg">
<path d="M31.442 541.333C23.0097 541.333 14.6086 537.943 8.48331 531.224C-3.12083 518.562 -2.25109 498.869 10.4417 487.265L205.908 308.532C226.039 290.146 252.168 280.001 279.424 280.001H403.679C416.122 280.001 427.819 275.147 436.627 266.345L671.054 31.9185C683.22 19.7518 702.882 19.7518 715.043 31.9185C727.21 44.0851 727.21 63.7465 715.043 75.9078L480.616 310.335C460.054 330.897 432.736 342.225 403.679 342.225H279.424C267.727 342.225 256.528 346.579 247.908 354.48L52.4417 533.214C46.4677 538.625 38.9417 541.333 31.4417 541.333L31.442 541.333ZM187.002 746.667C169.83 746.667 155.893 732.76 155.893 715.557V528.891C155.893 511.688 169.83 497.781 187.002 497.781C204.174 497.781 218.111 511.688 218.111 528.891V715.557C218.111 732.76 204.174 746.667 187.002 746.667ZM62.5593 746.667C45.3873 746.667 31.45 732.76 31.45 715.557V622.224C31.45 605.021 45.3873 591.115 62.5593 591.115C79.7313 591.115 93.6686 605.021 93.6686 622.224V715.557C93.6686 732.76 79.7313 746.667 62.5593 746.667ZM311.439 746.667C294.267 746.667 280.33 732.76 280.33 715.557V435.557C280.33 418.354 294.267 404.448 311.439 404.448C328.611 404.448 342.549 418.354 342.549 435.557V715.557C342.549 732.76 328.611 746.667 311.439 746.667ZM435.887 746.667C418.685 746.667 404.778 732.76 404.778 715.557V435.557C404.778 418.354 418.685 404.448 435.887 404.448C453.09 404.448 466.997 418.354 466.997 435.557V715.557C466.997 732.76 453.09 746.667 435.887 746.667ZM560.33 746.667C543.127 746.667 529.221 732.76 529.221 715.557V373.33C529.221 356.158 543.127 342.221 560.33 342.221C577.533 342.221 591.439 356.158 591.439 373.33V715.557C591.439 732.76 577.533 746.667 560.33 746.667ZM684.773 746.667C667.57 746.667 653.663 732.76 653.663 715.557V282.09C653.663 264.918 667.57 250.981 684.773 250.981C701.975 250.981 715.882 264.918 715.882 282.09V715.557C715.882 732.76 701.975 746.667 684.773 746.667ZM715.887 221.92C698.685 221.92 684.778 207.982 684.778 190.81V62.2265H556.163C538.961 62.2265 525.054 48.2891 525.054 31.1171C525.054 13.9451 538.961 0.0078125 556.163 0.0078125H704.537C727.963 0.0078125 747.006 19.0811 747.006 42.5078V190.841C747.006 208.013 733.099 221.92 715.897 221.92H715.887ZM704.533 62.2265H704.846H704.533Z"/>
</svg>
