<svg width="145" height="160" viewBox="0 0 145 160" fill="#FF5A00" xmlns="http://www.w3.org/2000/svg">
<g clip-path="url(#clip0_6_86)">
<path d="M87.4497 64.7336H105.397C107.226 64.7309 108.979 64.0015 110.271 62.7057C111.563 61.4099 112.289 59.6536 112.289 57.8225V41.5399C112.291 39.2106 113.216 36.9772 114.861 35.3298C116.506 33.6825 118.736 32.7557 121.062 32.7529H138.106C139.933 32.7516 141.685 32.0241 142.977 30.7303C144.269 29.4364 144.996 27.682 144.997 25.8522V6.8981C144.995 5.0688 144.268 3.31505 142.976 2.02178C141.684 0.728505 139.932 0.001381 138.106 0H116.695C114.869 0.00207158 113.118 0.7295 111.826 2.0227C110.534 3.31589 109.808 5.06925 109.806 6.8981V23.1937C109.803 25.5231 108.878 27.7562 107.232 29.4031C105.587 31.0499 103.357 31.976 101.03 31.9781H83.9843C82.1575 31.9808 80.4064 32.7089 79.1149 34.0025C77.8235 35.2961 77.0971 37.0497 77.095 38.8788V55.1718C77.0923 57.4996 76.1682 59.7314 74.5253 61.3784C72.8824 63.0254 70.6545 63.9533 68.3297 63.9588H50.3718C48.5435 63.9608 46.7908 64.6897 45.499 65.9852C44.2071 67.2806 43.4819 69.0367 43.4825 70.8673V89.8188C43.4839 91.6482 44.2101 93.4022 45.5017 94.6959C46.7933 95.9897 48.5448 96.7175 50.3718 96.7196H68.3297C70.6563 96.7223 72.8869 97.649 74.532 99.2962C76.1772 100.944 77.1027 103.177 77.1054 105.507V121.8C77.1068 123.629 77.833 125.383 79.1246 126.677C80.4162 127.97 82.1677 128.698 83.9947 128.7H101.03C103.357 128.703 105.587 129.63 107.233 131.277C108.878 132.924 109.803 135.158 109.806 137.487V153.107C109.808 154.936 110.534 156.689 111.826 157.983C113.118 159.276 114.869 160.003 116.695 160.005H138.106C139.932 160.004 141.684 159.277 142.976 157.983C144.268 156.69 144.995 154.936 144.997 153.107V134.145C144.996 132.315 144.269 130.561 142.977 129.267C141.685 127.973 139.933 127.246 138.106 127.244H121.062C118.736 127.242 116.506 126.315 114.861 124.668C113.216 123.02 112.291 120.787 112.289 118.457V102.838C112.286 101.008 111.559 99.2551 110.267 97.962C108.975 96.6689 107.224 95.9415 105.397 95.9395H87.4497C85.1236 95.936 82.8937 95.0091 81.2491 93.3619C79.6045 91.7146 78.6794 89.4816 78.6766 87.1525V73.518C78.6794 71.1891 79.6046 68.9564 81.2493 67.3096C82.8939 65.6628 85.1238 64.7364 87.4497 64.7336Z" fill="#FF5A00"/>
<path d="M25.5324 0H2.48576C1.11291 0 0 1.11434 0 2.48895V157.511C0 158.886 1.11291 160 2.48576 160H25.5324C26.9053 160 28.0182 158.886 28.0182 157.511V2.48895C28.0182 1.11434 26.9053 0 25.5324 0Z" fill="#FF5A00"/>
</g>
<defs>
<clipPath id="clip0_6_86">
<rect width="145" height="160" fill="white"/>
</clipPath>
</defs>
</svg>
